<svg width="278" height="280" viewBox="0 0 278 280" fill="none" xmlns="http://www.w3.org/2000/svg">
<path d="M47.1527 81.0588C46.2845 82.2317 43.762 87.1727 41.4945 92.0756C39.1799 97.0116 34.1124 107.966 30.1525 116.382C22.3744 133.115 21.3338 136.452 22.3847 142.268L22.9984 145.854L40.3926 170.643L57.7868 195.432L60.9643 197.149C65.4895 199.681 70.1067 200.035 81.7964 199.02C87.4334 198.517 98.4994 197.517 106.324 196.818C123.731 195.315 127.27 194.734 130.698 192.892L133.433 191.467L137.141 194.643C148.919 204.7 162.645 215.926 164.314 216.798C167.312 218.359 172.823 219.284 176.045 218.855C177.623 218.593 182.834 216.981 187.609 215.25C232.412 198.963 229.748 199.987 233.393 197.147C239.266 192.462 239.521 191.72 245.061 160.351C250.498 129.336 250.54 128.391 246.591 121.86C244.839 118.861 242.796 117.054 223.805 101.136C212.358 91.5515 201.995 83.1093 200.714 82.3877C197.21 80.407 192.933 79.5329 188.817 80.0951C186.28 80.3957 178.231 83.0842 164.24 88.2508L143.442 95.8682L135.301 84.6685C127.241 73.483 127.208 73.4357 123.865 71.4832C119.094 68.7005 114.538 68.2331 102.801 69.2813C97.164 69.7838 85.3467 70.8179 76.596 71.6028C67.8453 72.3877 59.4018 73.3093 57.7957 73.7316C54.3281 74.6145 49.2427 78.1124 47.1527 81.0588ZM58.893 78.8103C60.6218 78.161 87.1242 75.5603 106.899 74.0163C112.011 73.6703 113.983 74.4714 114.591 77.1454C115.037 79.087 114.702 79.8151 101.823 107.455L93.178 126.064L89.6606 128.885C86.8657 131.128 85.6803 131.748 83.4504 132.185C78.0975 133.193 34.2726 136.815 32.4055 136.364C31.3279 136.133 30.1268 135.426 29.6961 134.812C29.2654 134.198 29.0086 132.828 29.1586 131.736C29.4163 129.794 49.1537 87.124 51.0408 84.3906C52.4184 82.4374 56.2099 79.7065 58.893 78.8103ZM35.3128 141.511C42.348 140.591 83.5553 137.256 85.2095 137.504C86.3816 137.668 88.7217 138.493 90.3576 139.318L93.4498 140.812L105.018 157.499C111.398 166.692 117.665 175.824 118.91 177.699C120.188 179.621 121.991 182.09 122.848 183.11C124.215 184.758 124.405 185.329 123.991 186.747C123.708 187.65 122.968 188.804 122.307 189.268C120.984 190.196 72.6384 194.806 69.0748 194.347C67.8224 194.168 65.3498 193.155 63.501 192.127L60.1437 190.255L44.9693 168.629C30.2588 147.665 29.8421 146.971 30.1098 145.444C30.4478 143.516 32.5536 141.897 35.3128 141.511ZM123.917 79.6913C125.349 80.0252 126.172 80.9977 131.913 88.8781L138.35 97.75L136.763 98.2999C135.922 98.6081 133.854 99.7776 132.248 100.904C130.596 102.064 129.24 102.944 129.174 102.85C129.108 102.755 129.125 101.475 129.218 100C129.639 91.4608 123.542 86.7894 120.237 93.1253C117.681 98.0191 120.712 107.66 124.723 107.453C125.857 107.362 125.876 107.489 125.259 109.12C124.882 110.089 122.538 122.515 120.045 136.737L115.495 162.69L107.179 150.838C100.487 141.3 98.7398 138.51 98.0946 136.285C96.7379 131.74 97.6833 127.765 102.185 117.912C118.651 82.3294 118.924 81.7147 120.624 80.522C121.757 79.7268 122.839 79.461 123.917 79.6913ZM163.287 93.9225C187.353 85.1389 187.481 85.1199 191.323 85.1722C196.653 85.2371 197.84 86.0249 218.643 103.42C230.889 113.641 238.343 120.248 238.765 121.15C239.561 122.988 238.859 125.101 237.065 126.36C236.309 126.89 229.111 129.686 221.02 132.616C212.961 135.592 202.442 139.38 197.699 141.157C184.388 145.988 181.368 145.5 170.981 136.722C167.372 133.688 158.749 126.42 151.811 120.649C144.872 114.877 138.808 109.549 138.311 108.841C137.018 106.999 137.569 104.57 139.599 103.145C140.496 102.516 151.166 98.3404 163.287 93.9225ZM132.082 112.718C132.847 112.604 134.034 112.687 134.648 112.961C135.31 113.201 144.401 120.633 154.949 129.439C175.737 146.914 176.688 147.868 177.852 153.745C178.47 156.835 170.001 206.325 168.6 207.943C167.184 209.641 165.068 210.139 163.365 209.22C162.491 208.777 153.22 201.188 142.672 192.383C126.179 178.518 123.464 176.054 122.341 173.953C119.637 168.592 119.716 167.198 124.129 141.553C127.899 119.811 129.168 113.988 130.254 113.226C130.443 113.093 131.269 112.865 132.082 112.718ZM215.22 139.715C234.147 132.847 239.102 131.272 240.629 131.54C244.647 132.244 244.632 132.324 239.571 160.962L234.814 187.624L232.247 190.694C230.581 192.638 228.919 194.085 227.559 194.758C223.478 196.776 181.335 211.832 179.355 212.023C177.791 212.204 177.063 211.869 175.941 210.472C174.541 208.777 174.507 208.73 179.194 182.47C183.382 158.814 184.05 155.949 185.678 153.75C186.702 152.398 188.453 150.676 189.633 149.847C190.922 148.872 200.832 145.019 215.22 139.715Z" fill="white"/>
<path d="M54.648 90.0334C54.049 91.0878 53.6729 92.7611 53.759 93.6872C53.9403 95.2511 54.106 95.4872 55.6898 96.1375C62.039 98.6585 72.9049 87.9335 67.5705 84.3481C64.6101 82.3384 56.9444 85.6739 54.648 90.0334Z" fill="white"/>
<path d="M39.0165 123.692C35.8146 129.673 41.8615 132.265 48.3775 127.693C57.4432 121.332 52.9166 113.375 43.5668 119.231C40.998 120.892 40.0114 121.796 39.0165 123.692Z" fill="white"/>
<path d="M65.4583 105.138C61.7652 111.323 67.9255 113.977 74.7721 109.173C77.8884 106.986 79.7142 104.366 79.5793 102.065C79.4454 96.451 69.2408 98.6788 65.4583 105.138Z" fill="white"/>
<path d="M91.9324 85.9273C89.0926 90.3158 90.9206 93.8248 95.6406 93.1201C100.011 92.5197 104.793 88.3889 105.63 84.5603C106.575 79.881 100.695 78.9331 95.2368 82.904C93.8675 83.8648 92.4278 85.2274 91.9324 85.9273Z" fill="white"/>
<path d="M76.0604 120.248C72.3674 126.433 78.5277 129.086 85.3742 124.282C88.4906 122.095 90.3164 119.475 90.1815 117.174C90.0475 111.561 79.843 113.788 76.0604 120.248Z" fill="white"/>
<path d="M40.01 149.912C40.0073 155.834 52.5499 161.055 55.673 156.468C58.9659 151.621 46.5054 143.805 41.2643 147.482C40.5088 148.012 40.0043 149 40.01 149.912Z" fill="white"/>
<path d="M98.145 176.626C97.7564 179.788 101.995 183.72 106.948 184.754C111.614 185.778 114.24 184.5 114.113 181.206C113.966 176.377 103.432 171.507 99.3239 174.39C98.8045 174.754 98.2528 175.776 98.145 176.626Z" fill="white"/>
<path d="M179.914 113.401C179.698 114.398 180.053 115.206 181.17 116.396C185.802 121.39 197.067 120.673 196.91 115.428C196.728 109.143 180.985 107.295 179.914 113.401Z" fill="white"/>
<path d="M133.414 124.96C130.594 130.18 136.405 140.972 141.147 139.194C144.397 137.9 144.74 132.163 141.757 127.21C139.939 124.116 138.246 122.909 135.879 122.949C134.631 122.979 134.287 123.291 133.414 124.96Z" fill="white"/>
<path d="M126.52 162.635C125.815 165.948 126.456 168.67 128.794 172.102C131.279 175.644 133.303 176.62 135.333 175.195C137.883 173.406 138.195 169.734 136.13 164.982C133.434 158.629 127.686 157.166 126.52 162.635Z" fill="white"/>
<path d="M161.907 148.092C160.997 149.506 160.817 153.367 161.599 155.989C163.041 160.755 167.691 164.469 170.099 162.779C174.773 159.499 170.416 146.561 164.575 146.572C162.879 146.565 162.879 146.565 161.907 148.092Z" fill="white"/>
<path d="M154.928 186.249C154.128 188.925 154.94 192.794 157.028 195.769C159.38 199.121 161.73 200.361 163.524 199.102C166.546 196.982 166.388 191.033 163.207 186.5C160.06 182.014 156.232 181.881 154.928 186.249Z" fill="white"/>
<path d="M189.786 158.901C186.258 165.322 189.604 169.387 195.554 165.917C199.152 163.814 201.318 160.674 201.744 157.063C202.052 153.888 201.602 153.146 199.031 152.695C197.391 152.367 196.597 152.641 194.095 154.397C192.017 155.855 190.705 157.199 189.786 158.901Z" fill="white"/>
<path d="M225.829 144.391C221.668 150.411 222.751 155.57 227.877 154.44C232.016 153.509 236.48 148.121 236.745 143.778C236.893 141.278 236.415 140.698 234 140.067C231.617 139.484 227.839 141.43 225.829 144.391Z" fill="white"/>
<path d="M187.904 175.301C185.762 178.072 185.027 180.138 185.37 182.434C185.589 184.253 185.755 184.49 187.192 185.031C191.443 186.77 197.858 181.352 198.504 175.544C198.92 171.517 197.023 169.818 193.405 171.089C190.755 172.032 189.844 172.742 187.904 175.301Z" fill="white"/>
<path d="M221.995 163.429C219.348 167.189 219.49 171.811 222.293 172.592C227.933 174.202 236.054 163.782 232.84 159.202C231.018 156.605 225.231 158.904 221.995 163.429Z" fill="white"/>
<path d="M184.443 193.866C181.565 198 181.237 201.048 183.508 202.978C185.092 204.333 187.02 203.967 190.184 201.747C195.925 197.577 197.32 189.622 192.456 189.018C190.433 188.747 186.127 191.346 184.443 193.866Z" fill="white"/>
<path d="M218.566 182.042C216.887 184.771 216.404 187.999 217.464 189.51C220.28 193.523 228.653 188.283 229.983 181.642C230.716 178.168 229.319 175.977 226.56 176.363C224.184 176.692 220.028 179.607 218.566 182.042Z" fill="white"/>
</svg>
