<svg width="901" height="171" viewBox="0 0 901 171" fill="none" xmlns="http://www.w3.org/2000/svg">
<path d="M91.9102 42.9902C104.449 53.0098 114.146 63.7617 121.002 75.2461C107.643 102.492 87.1348 122.502 59.4785 135.275C20.2207 119.455 0.591797 95.5195 0.591797 63.4688C0.591797 61.125 0.708984 58.752 0.943359 56.3496C19.2246 29.8652 39.498 12.1113 61.7637 3.08789C73.9512 11.584 90.6211 18.5566 111.773 24.0059L91.9102 42.9902ZM60.0059 28.2246C59.4785 34.1426 59.2148 39.3867 59.2148 43.957C59.2148 48.5273 59.2734 52.3652 59.3906 55.4707C62.6133 52.4824 65.9238 49.4941 69.3223 46.5059C72.7207 43.5176 76.0312 40.4707 79.2539 37.3652C74.2148 33.4395 67.7988 30.3926 60.0059 28.2246ZM59.5664 59.7773C59.8594 66.8672 60.416 73.9277 61.2363 80.959C55.1426 82.0723 47.9648 86.0859 39.7031 93C44.5078 97.3945 49.9863 101.408 56.1387 105.041C62.3496 108.674 68.1504 110.49 73.541 110.49C75.0645 110.49 76.5879 110.373 78.1113 110.139C87.7793 108.557 93.1992 104.25 94.3711 97.2188C94.6641 95.3438 94.8105 93.5273 94.8105 91.7695C94.8105 86.8477 93.668 82.4824 91.3828 78.6738C89.0977 74.8066 85.3477 71.0566 80.1328 67.4238C74.918 63.7324 68.0625 61.1836 59.5664 59.7773ZM33.1992 86.584C34.7227 83.2441 35.6016 79.4062 35.8359 75.0703L36.627 44.4844C36.6855 41.8477 35.8066 38.4492 33.9902 34.2891C33.0527 35.1094 32.2031 36.0762 31.4414 37.1895C26.1094 44.3379 23.4434 52.3652 23.4434 61.2715C23.4434 70.9395 26.6953 79.377 33.1992 86.584ZM110.603 30.7734C127.888 21.0469 144.47 11.8184 160.349 3.08789C173.767 9.12305 186.57 13.5469 198.757 16.3594L174.323 33.3223C170.573 32.502 167.058 31.2715 163.777 29.6309C160.554 27.9316 157.712 26.7891 155.251 26.2031C152.849 25.6172 150.681 25.3242 148.747 25.3242C146.872 25.3242 145.173 26.2617 143.65 28.1367C142.185 30.0117 141.452 31.7402 141.452 33.3223C141.452 34.9043 141.482 35.9883 141.54 36.5742L141.452 60.5684L173.532 40.4414C187.888 53.332 201.218 68.3027 213.523 85.3535C208.601 99.6504 202.888 113.449 196.384 126.75C189.88 139.992 181.56 152.209 171.423 163.4C166.97 168.264 162.722 170.695 158.679 170.695C156.277 170.695 154.109 169.934 152.175 168.41C150.241 166.945 148.542 165.51 147.077 164.104C145.613 162.756 144.089 161.408 142.507 160.061C158.855 156.076 170.251 147.873 176.696 135.451C181.15 126.838 183.376 118.254 183.376 109.699C183.376 105.891 182.82 101.555 181.706 96.6914C180.593 91.7695 176.843 84.2988 170.456 74.2793C166.472 67.9512 161.784 64.7871 156.394 64.7871C153.171 64.7871 149.714 65.9004 146.023 68.127C145.027 68.7129 143.503 69.6797 141.452 71.0273L141.364 97.4824C141.247 99.8262 141.833 101.379 143.122 102.141C144.47 102.844 146.14 103.547 148.132 104.25C150.183 104.953 152.878 105.861 156.218 106.975C159.616 108.029 163.689 108.586 168.435 108.645L149.099 135.275C133.747 131.818 120.564 127.277 109.548 121.652C113.65 105.832 115.7 90.3633 115.7 75.2461C115.7 60.0703 114.001 45.2461 110.603 30.7734ZM281.522 3.08789C280.995 10.6465 280.702 17.0918 280.643 22.4238C283.455 19.6699 286.268 16.8574 289.08 13.9863C291.893 11.0566 294.676 8.39062 297.43 5.98828C305.868 23.1562 319.842 37.5996 339.354 49.3184C339.237 63.3809 336.717 75.8027 331.795 86.584C326.932 97.3066 321.043 106.301 314.129 113.566C307.215 120.773 299.979 126.223 292.42 129.914C284.862 133.547 278.416 135.363 273.084 135.363C248.241 135.363 230.897 127.453 221.053 111.633C211.268 95.7539 204.998 77.2383 202.245 56.0859C211.678 42.4336 222.723 30.8613 235.379 21.3691C248.036 11.877 263.416 5.7832 281.522 3.08789ZM280.555 33.6738C280.789 60.4512 284.012 80.7246 290.223 94.4941C275.516 98.0098 265.907 104.016 261.395 112.512C267.137 115.969 273.231 117.697 279.676 117.697C280.321 117.697 280.936 117.668 281.522 117.609C290.78 117.316 298.397 114.65 304.373 109.611C311.405 103.752 314.92 96.1641 314.92 86.8477C314.92 79.875 312.489 71.7891 307.625 62.5898C302.762 53.3906 293.739 43.752 280.555 33.6738ZM253.485 106.447C255.711 100.236 256.825 92.1797 256.825 82.2773C256.825 81.3398 256.737 78.3223 256.561 73.2246C256.444 68.0684 256.327 60.7734 256.209 51.3398C256.092 41.9062 255.389 32.5605 254.1 23.3027C241.209 30.8027 234.764 42.668 234.764 58.8984C234.764 60.2461 234.823 61.623 234.94 63.0293C236.053 81.4277 242.235 95.9004 253.485 106.447ZM413.33 8.36133C418.779 11.0566 424.316 12.4043 429.941 12.4043C435.625 12.4043 442.451 10.2656 450.42 5.98828L453.847 10.1191C445.175 28.9277 434.629 38.332 422.207 38.332C418.75 38.332 414.179 37.3359 408.496 35.3438C392.734 29.8945 381.308 27.1699 374.218 27.1699C370.879 27.1699 367.539 27.4922 364.199 28.1367C355.058 30.0703 350.488 35.4609 350.488 44.3086C350.488 47.4727 351.308 50.4316 352.949 53.1855C355.879 58.2246 360.507 60.7441 366.836 60.7441C373.164 60.7441 378.847 55.1191 383.886 43.8691C389.336 42.9902 394.492 42.5508 399.355 42.5508C408.964 42.5508 417.402 44.25 424.668 47.6484C435.625 52.7461 442.861 59.8945 446.377 69.0938C447.841 72.9023 448.574 77.3555 448.574 82.4531C448.574 87.4922 447.109 93.3516 444.179 100.031C439.199 111.516 428.974 122.355 413.505 132.551C410.634 134.426 407.382 135.363 403.75 135.363C400 135.363 395.927 134.865 391.533 133.869C379.814 131.408 368.974 126.926 359.013 120.422C349.052 113.918 340.791 104.953 334.228 93.5273C331.123 88.3125 329.57 82.541 329.57 76.2129C329.57 75.4512 329.599 74.6895 329.658 73.9277C331.709 45.4512 342.959 22.5996 363.408 5.37305C367.275 2.0918 372.607 0.480469 379.404 0.539062C390.771 0.714844 402.08 3.32227 413.33 8.36133ZM354.267 70.4121C356.494 80.666 364.931 89.8066 379.58 97.834C390.654 103.869 400.966 106.887 410.517 106.887C413.681 106.887 416.757 106.564 419.746 105.92C425.722 104.689 430.263 102.346 433.369 98.8887C436.767 95.1387 438.466 91.2129 438.466 87.1113C438.466 82.9512 436.767 78.9082 433.369 74.9824C430.029 71.0566 424.726 68.4785 417.461 67.248C416.757 67.1309 415.439 67.0723 413.505 67.0723C411.572 67.0723 408.379 67.9219 403.925 69.6211C398.359 71.7305 393.935 76.3594 390.654 83.5078C390.127 83.5078 389.599 83.5078 389.072 83.5078C378.584 83.5078 366.982 79.1426 354.267 70.4121ZM441.778 73.6641C452.618 58.7812 466.768 43.3418 484.229 27.3457C481.358 25.002 478.311 23.8301 475.089 23.8301C470.518 23.8301 460.85 26.877 446.085 32.9707L467.266 0.714844C484.317 2.47266 500.167 3.35156 514.815 3.35156C529.522 3.35156 543.555 2.47266 556.915 0.714844C550.411 15.7148 545.899 26.2031 543.38 32.1797C536.876 29.4844 530.108 27.375 523.077 25.8516L523.78 98.0098C513.409 99.1816 503.595 102.961 494.337 109.348C501.837 115.5 510.831 118.576 521.319 118.576C531.807 118.576 543.233 115.354 555.596 108.908C555.362 112.893 555.186 116.877 555.069 120.861C522.843 135.686 497.94 138.059 480.362 127.98C462.784 117.902 449.923 99.7969 441.778 73.6641ZM493.194 36.4863C484.112 45.041 478.751 53.8887 477.11 63.0293C476.524 66.1348 476.231 69.8555 476.231 74.1914C476.231 78.5273 477.345 83.4492 479.571 88.957C481.798 94.4062 484.669 99.1816 488.184 103.283C492.403 99.123 494.63 92.707 494.864 84.0352C495.274 67.8633 495.479 56.9062 495.479 51.1641C495.479 45.4219 494.718 40.5293 493.194 36.4863ZM584.133 145.91C585.891 145.91 586.77 144.416 586.77 141.428C586.77 138.439 585.51 133.693 582.99 127.189C580.471 120.627 576.604 112.277 571.389 102.141C566.174 92.0039 560.432 81.4277 554.162 70.4121C547.951 59.3965 542.385 49.377 537.463 40.3535C555.217 29.1621 569.045 16.7402 578.947 3.08789C592.131 7.83398 606.574 12.6094 622.277 17.4141C616.184 25.2656 610.031 33.0586 603.82 40.793C601.945 37.9219 597.287 34.9629 589.846 31.916C582.463 28.8691 577.424 27.3457 574.729 27.3457C572.033 27.3457 570.334 27.7559 569.631 28.5762C568.928 29.3965 568.576 30.4512 568.576 31.7402C568.576 35.7246 570.949 43.4297 575.695 54.8555C578.684 55.0312 583.488 55.1191 590.109 55.1191C596.73 55.1191 606.252 54.3574 618.674 52.834C617.385 59.8652 616.213 66.8379 615.158 73.752L583.43 72.082C591.984 90.2461 601.096 106.301 610.764 120.246C600.744 134.016 588.674 150.803 574.553 170.607C560.256 163.576 547.57 151.799 536.496 135.275C539.191 128.537 542.736 119.602 547.131 108.469C553.107 117.609 560.109 126.135 568.137 134.045C576.164 141.955 581.496 145.91 584.133 145.91ZM669.095 30.2461C663.118 28.7227 657.318 27.9609 651.693 27.9609C637.864 27.9609 625.267 32.6484 613.9 42.0234C613.958 41.4375 613.753 39.9141 613.284 37.4531C612.874 34.9336 612.728 33.3809 612.845 32.7949C628.255 20.1387 645.013 10.2363 663.118 3.08789C686.79 10.1191 708.558 19.7871 728.421 32.0918C727.132 34.2012 725.521 36.0469 723.587 37.6289C721.654 39.2109 720.042 41.0273 718.753 43.0781C718.343 44.1914 718.138 45.7734 718.138 47.8242V52.5703L718.753 99.6797C718.929 103.488 719.632 105.861 720.862 106.799L729.739 114.094L714.271 135.275L694.144 118.225C695.433 109.025 696.077 96.9844 696.077 82.1016H663.206C660.98 102.844 654.622 120.422 644.134 134.836C633.704 149.25 624.3 160.529 615.921 168.674C613.46 166.916 611.234 165.451 609.241 164.279C616.038 157.189 621.107 149.074 624.446 139.934C627.845 130.793 630.745 121.154 633.148 111.018C635.55 100.822 636.751 90.8613 636.751 81.1348C636.751 71.3496 634.612 62.1797 630.335 53.625C644.573 46.5352 657.493 38.7422 669.095 30.2461ZM695.726 61.4473C695.609 54.4746 695.55 50.1973 695.55 48.6152C695.55 46.9746 695.579 45.1289 695.638 43.0781C689.837 38.9766 683.743 35.6074 677.357 32.9707C673.196 36.0762 670.032 39.6504 667.864 43.6934C665.696 47.6777 664.407 53.5957 663.997 61.4473H695.726ZM803.891 42.4629C797.211 36.7793 790.414 32.8242 783.5 30.5977C783.09 36.1055 782.885 43.0488 782.885 51.4277C782.885 59.8066 783.793 69.4746 785.61 80.4316L757.836 92.8242C762.524 97.6875 768.764 101.35 776.557 103.811C780.834 105.158 785.434 105.832 790.356 105.832C795.336 105.832 800.434 105.393 805.649 104.514L790.356 136.682C773.305 131.115 759.828 125.725 749.926 120.51C740.024 115.236 732.612 109.055 727.69 101.965C722.827 94.875 719.897 86.3203 718.901 76.3008C718.256 70.0312 717.934 63.6152 717.934 57.0527C717.934 50.4316 718.051 44.3086 718.286 38.6836L790.532 3.08789L811.625 18.3809L803.891 42.4629ZM758.891 31.4766C749.223 36.1055 744.389 44.6016 744.389 56.9648C744.389 68.1562 747.143 77.9707 752.651 86.4082C756.401 83.9473 758.715 79.0547 759.594 71.7305C759.946 68.8594 760.121 64.4062 760.121 58.3711C760.121 52.2773 759.711 43.3125 758.891 31.4766ZM900.367 19.7871L885.425 37.1895C876.285 30.8613 867.349 27.082 858.619 25.8516C858.091 30.8906 857.74 36.6328 857.564 43.0781H893.863V63.8203H858.004C858.179 70.5 858.853 78.2637 860.025 87.1113L839.81 94.4941C850.884 104.455 866.295 109.436 886.041 109.436C888.267 109.436 890.552 109.377 892.896 109.26L873.648 135.275C848.746 132.58 829.586 123.791 816.168 108.908C802.808 94.0254 796.129 72.082 796.129 43.0781L864.332 3.08789C872.593 8.77148 884.605 14.3379 900.367 19.7871ZM833.043 87.2871L839.547 85.0898C837.789 72.2578 836.91 61.1543 836.91 51.7793C836.91 42.4043 837.056 34.9043 837.349 29.2793C833.834 31.0371 830.963 33.0879 828.736 35.4316C826.568 37.7754 824.986 40.0605 823.99 42.2871C823.052 44.4551 822.584 47.5605 822.584 51.6035C822.584 55.5879 822.642 58.6055 822.759 60.6562C823.17 69.9141 826.597 78.791 833.043 87.2871Z" fill="#0000FF"/>
</svg>
