<svg width="2800" height="530" viewBox="0 0 2800 530" fill="none" xmlns="http://www.w3.org/2000/svg">
<path d="M284.609 132.414C323.62 163.586 353.789 197.036 375.117 232.766C333.555 317.531 269.753 379.784 183.711 419.523C61.5755 370.305 0.507812 295.839 0.507812 196.125C0.507812 188.833 0.872396 181.451 1.60156 173.977C58.4766 91.5807 121.549 36.3464 190.82 8.27344C228.737 34.7057 280.599 56.3984 346.406 73.3516L284.609 132.414ZM185.352 86.4766C183.711 104.888 182.891 121.203 182.891 135.422C182.891 149.641 183.073 161.581 183.438 171.242C193.464 161.945 203.763 152.648 214.336 143.352C224.909 134.055 235.208 124.576 245.234 114.914C229.557 102.701 209.596 93.2214 185.352 86.4766ZM183.984 184.641C184.896 206.698 186.628 228.664 189.18 250.539C170.221 254.003 147.891 266.49 122.188 288C137.135 301.672 154.18 314.159 173.32 325.461C192.643 336.763 210.69 342.414 227.461 342.414C232.201 342.414 236.94 342.049 241.68 341.32C271.758 336.398 288.62 323 292.266 301.125C293.177 295.292 293.633 289.641 293.633 284.172C293.633 268.859 290.078 255.279 282.969 243.43C275.859 231.398 264.193 219.732 247.969 208.43C231.745 196.945 210.417 189.016 183.984 184.641ZM101.953 268.039C106.693 257.648 109.427 245.708 110.156 232.219L112.617 137.062C112.799 128.859 110.065 118.286 104.414 105.344C101.497 107.896 98.8542 110.904 96.4844 114.367C79.8958 136.607 71.6016 161.581 71.6016 189.289C71.6016 219.367 81.7188 245.617 101.953 268.039ZM342.764 94.4062C396.54 64.1458 448.129 35.4349 497.53 8.27344C539.274 27.0495 579.105 40.8125 617.022 49.5625L541.006 102.336C529.34 99.7839 518.402 95.9557 508.194 90.8516C498.168 85.5651 489.327 82.0104 481.67 80.1875C474.196 78.3646 467.452 77.4531 461.436 77.4531C455.603 77.4531 450.316 80.3698 445.577 86.2031C441.019 92.0365 438.741 97.4141 438.741 102.336C438.741 107.258 438.832 110.63 439.014 112.453L438.741 187.102L538.545 124.484C583.207 164.589 624.678 211.164 662.959 264.211C647.647 308.69 629.873 351.62 609.639 393C589.405 434.198 563.519 472.206 531.983 507.023C518.129 522.154 504.913 529.719 492.334 529.719C484.86 529.719 478.116 527.349 472.1 522.609C466.084 518.052 460.798 513.586 456.241 509.211C451.683 505.018 446.944 500.826 442.022 496.633C492.881 484.237 528.337 458.716 548.389 420.07C562.243 393.273 569.17 366.568 569.17 339.953C569.17 328.104 567.439 314.615 563.975 299.484C560.511 284.172 548.845 260.93 528.975 229.758C516.579 210.07 501.996 200.227 485.225 200.227C475.199 200.227 464.444 203.69 452.959 210.617C449.86 212.44 445.121 215.448 438.741 219.641L438.467 301.945C438.103 309.237 439.926 314.068 443.936 316.438C448.129 318.625 453.324 320.812 459.522 323C465.902 325.188 474.288 328.013 484.678 331.477C495.251 334.758 507.92 336.49 522.686 336.672L462.53 419.523C414.769 408.768 373.754 394.641 339.483 377.141C352.243 327.922 358.623 279.797 358.623 232.766C358.623 185.552 353.337 139.432 342.764 94.4062ZM874.513 8.27344C872.872 31.7891 871.96 51.8411 871.778 68.4297C880.528 59.862 889.278 51.112 898.028 42.1797C906.778 33.0651 915.437 24.7708 924.005 17.2969C950.255 70.7083 993.731 115.643 1054.43 152.102C1054.07 195.852 1046.23 234.497 1030.92 268.039C1015.79 301.398 997.468 329.38 975.958 351.984C954.447 374.406 931.934 391.359 908.419 402.844C884.903 414.146 864.851 419.797 848.263 419.797C770.971 419.797 717.013 395.188 686.388 345.969C655.945 296.568 636.44 238.964 627.872 173.156C657.221 130.682 691.583 94.6797 730.958 65.1484C770.333 35.6172 818.184 16.6589 874.513 8.27344ZM871.505 103.43C872.234 186.737 882.26 249.81 901.583 292.648C855.828 303.586 825.932 322.271 811.895 348.703C829.76 359.458 848.718 364.836 868.77 364.836C870.776 364.836 872.69 364.745 874.513 364.562C903.315 363.651 927.013 355.357 945.606 339.68C967.481 321.451 978.419 297.844 978.419 268.859C978.419 247.167 970.854 222.01 955.723 193.391C940.593 164.771 912.52 134.784 871.505 103.43ZM787.286 329.836C794.213 310.513 797.677 285.448 797.677 254.641C797.677 251.724 797.403 242.336 796.856 226.477C796.492 210.435 796.127 187.74 795.763 158.391C795.398 129.042 793.21 99.9661 789.2 71.1641C749.096 94.4974 729.044 131.411 729.044 181.906C729.044 186.099 729.226 190.383 729.591 194.758C733.054 251.997 752.286 297.023 787.286 329.836ZM1284.58 24.6797C1301.53 33.0651 1318.76 37.2578 1336.26 37.2578C1353.94 37.2578 1375.18 30.6042 1399.97 17.2969L1410.64 30.1484C1383.66 88.6641 1350.84 117.922 1312.2 117.922C1301.44 117.922 1287.22 114.823 1269.54 108.625C1220.51 91.6719 1184.96 83.1953 1162.9 83.1953C1152.51 83.1953 1142.12 84.1979 1131.73 86.2031C1103.29 92.2188 1089.07 108.99 1089.07 136.516C1089.07 146.359 1091.63 155.565 1096.73 164.133C1105.84 179.81 1120.25 187.648 1139.93 187.648C1159.62 187.648 1177.3 170.148 1192.98 135.148C1209.93 132.414 1225.97 131.047 1241.1 131.047C1271 131.047 1297.25 136.333 1319.85 146.906C1353.94 162.766 1376.46 185.005 1387.39 213.625C1391.95 225.474 1394.23 239.328 1394.23 255.188C1394.23 270.865 1389.67 289.094 1380.56 309.875C1365.06 345.604 1333.25 379.328 1285.13 411.047C1276.2 416.88 1266.08 419.797 1254.78 419.797C1243.11 419.797 1230.44 418.247 1216.77 415.148C1180.31 407.492 1146.59 393.547 1115.6 373.312C1084.61 353.078 1058.9 325.188 1038.49 289.641C1028.83 273.417 1024 255.461 1024 235.773C1024 233.404 1024.09 231.034 1024.27 228.664C1030.65 140.07 1065.65 68.9766 1129.27 15.3828C1141.3 5.17448 1157.89 0.161458 1179.03 0.34375C1214.4 0.890625 1249.58 9.0026 1284.58 24.6797ZM1100.83 217.727C1107.76 249.628 1134.01 278.065 1179.58 303.039C1214.03 321.815 1246.12 331.203 1275.83 331.203C1285.68 331.203 1295.25 330.201 1304.54 328.195C1323.14 324.367 1337.26 317.076 1346.93 306.32C1357.5 294.654 1362.78 282.44 1362.78 269.68C1362.78 256.737 1357.5 244.159 1346.93 231.945C1336.53 219.732 1320.04 211.711 1297.43 207.883C1295.25 207.518 1291.14 207.336 1285.13 207.336C1279.11 207.336 1269.18 209.979 1255.32 215.266C1238.01 221.828 1224.24 236.229 1214.03 258.469C1212.39 258.469 1210.75 258.469 1209.11 258.469C1176.48 258.469 1140.39 244.888 1100.83 217.727ZM1373.09 227.844C1406.81 181.542 1450.83 133.508 1505.16 83.7422C1496.23 76.4505 1486.75 72.8047 1476.72 72.8047C1462.5 72.8047 1432.42 82.2839 1386.49 101.242L1452.38 0.890625C1505.43 6.35938 1554.74 9.09375 1600.31 9.09375C1646.07 9.09375 1689.73 6.35938 1731.29 0.890625C1711.06 47.5573 1697.02 80.1875 1689.18 98.7812C1668.95 90.3958 1647.89 83.8333 1626.02 79.0938L1628.2 303.586C1595.94 307.232 1565.41 318.99 1536.6 338.859C1559.94 358 1587.92 367.57 1620.55 367.57C1653.18 367.57 1688.73 357.544 1727.19 337.492C1726.46 349.888 1725.91 362.284 1725.55 374.68C1625.29 420.799 1547.81 428.182 1493.13 396.828C1438.44 365.474 1398.43 309.146 1373.09 227.844ZM1533.05 112.18C1504.79 138.794 1488.11 166.32 1483.01 194.758C1481.19 204.419 1480.28 215.995 1480.28 229.484C1480.28 242.974 1483.74 258.286 1490.67 275.422C1497.59 292.375 1506.53 307.232 1517.46 319.992C1530.59 307.049 1537.51 287.089 1538.24 260.109C1539.52 209.797 1540.16 175.708 1540.16 157.844C1540.16 139.979 1537.79 124.758 1533.05 112.18ZM1815.97 452.609C1821.44 452.609 1824.17 447.961 1824.17 438.664C1824.17 429.367 1820.25 414.602 1812.41 394.367C1804.58 373.951 1792.54 347.974 1776.32 316.438C1760.1 284.901 1742.23 251.997 1722.73 217.727C1703.4 183.456 1686.09 152.284 1670.77 124.211C1726.01 89.3932 1769.03 50.7474 1799.84 8.27344C1840.85 23.0391 1885.79 37.8958 1934.64 52.8438C1915.68 77.2708 1896.54 101.516 1877.22 125.578C1871.39 116.646 1856.89 107.44 1833.74 97.9609C1810.77 88.4818 1795.1 83.7422 1786.71 83.7422C1778.33 83.7422 1773.04 85.0182 1770.85 87.5703C1768.66 90.1224 1767.57 93.4036 1767.57 97.4141C1767.57 109.81 1774.95 133.781 1789.72 169.328C1799.02 169.875 1813.96 170.148 1834.56 170.148C1855.16 170.148 1884.78 167.779 1923.43 163.039C1919.42 184.914 1915.77 206.607 1912.49 228.117L1813.78 222.922C1840.4 279.432 1868.74 329.38 1898.82 372.766C1867.65 415.604 1830.1 467.831 1786.16 529.445C1741.68 507.57 1702.22 470.93 1667.77 419.523C1676.15 398.56 1687.18 370.76 1700.85 336.125C1719.45 364.562 1741.23 391.086 1766.2 415.695C1791.18 440.305 1807.77 452.609 1815.97 452.609ZM2080.3 92.7656C2061.7 88.026 2043.65 85.6562 2026.15 85.6562C1983.13 85.6562 1943.94 100.24 1908.58 129.406C1908.76 127.583 1908.12 122.844 1906.66 115.188C1905.39 107.349 1904.93 102.518 1905.3 100.695C1953.24 61.3203 2005.37 30.513 2061.7 8.27344C2135.35 30.1484 2203.07 60.2266 2264.87 98.5078C2260.86 105.07 2255.84 110.812 2249.83 115.734C2243.81 120.656 2238.8 126.307 2234.79 132.688C2233.51 136.151 2232.87 141.073 2232.87 147.453V162.219L2234.79 308.781C2235.33 320.63 2237.52 328.013 2241.35 330.93L2268.97 353.625L2220.84 419.523L2158.22 366.477C2162.24 337.857 2164.24 300.396 2164.24 254.094H2061.97C2055.05 318.625 2035.27 373.312 2002.64 418.156C1970.19 463 1940.93 498.091 1914.87 523.43C1907.21 517.961 1900.28 513.404 1894.08 509.758C1915.23 487.701 1931 462.453 1941.39 434.016C1951.96 405.578 1960.99 375.591 1968.46 344.055C1975.93 312.336 1979.67 281.346 1979.67 251.086C1979.67 220.643 1973.02 192.115 1959.71 165.5C2004.01 143.443 2044.2 119.198 2080.3 92.7656ZM2163.15 189.836C2162.78 168.143 2162.6 154.836 2162.6 149.914C2162.6 144.81 2162.69 139.068 2162.87 132.688C2144.83 119.927 2125.87 109.445 2106 101.242C2093.06 110.904 2083.21 122.023 2076.47 134.602C2069.72 146.997 2065.71 165.409 2064.44 189.836H2163.15ZM2499.66 130.773C2478.88 113.091 2457.73 100.786 2436.22 93.8594C2434.95 110.995 2434.31 132.596 2434.31 158.664C2434.31 184.732 2437.13 214.81 2442.79 248.898L2356.38 287.453C2370.96 302.583 2390.38 313.977 2414.62 321.633C2427.93 325.826 2442.24 327.922 2457.55 327.922C2473.05 327.922 2488.91 326.555 2505.13 323.82L2457.55 423.898C2404.5 406.581 2362.58 389.81 2331.77 373.586C2300.96 357.18 2277.9 337.948 2262.59 315.891C2247.46 293.833 2238.35 267.219 2235.25 236.047C2233.24 216.542 2232.24 196.581 2232.24 176.164C2232.24 155.565 2232.6 136.516 2233.33 119.016L2458.1 8.27344L2523.72 55.8516L2499.66 130.773ZM2359.66 96.5938C2329.58 110.995 2314.54 137.427 2314.54 175.891C2314.54 210.708 2323.11 241.242 2340.25 267.492C2351.91 259.836 2359.11 244.615 2361.85 221.828C2362.94 212.896 2363.49 199.042 2363.49 180.266C2363.49 161.307 2362.21 133.417 2359.66 96.5938ZM2799.81 60.2266L2753.32 114.367C2724.89 94.6797 2697.09 82.9219 2669.93 79.0938C2668.28 94.7708 2667.19 112.635 2666.64 132.688H2779.57V197.219H2668.01C2668.56 218 2670.65 242.154 2674.3 269.68L2611.41 292.648C2645.86 323.638 2693.81 339.133 2755.24 339.133C2762.16 339.133 2769.27 338.951 2776.57 338.586L2716.68 419.523C2639.21 411.138 2579.6 383.794 2537.85 337.492C2496.29 291.19 2475.51 222.922 2475.51 132.688L2687.7 8.27344C2713.4 25.9557 2750.77 43.2734 2799.81 60.2266ZM2590.35 270.227L2610.59 263.391C2605.12 223.469 2602.39 188.924 2602.39 159.758C2602.39 130.591 2602.84 107.258 2603.75 89.7578C2592.82 95.2266 2583.88 101.607 2576.96 108.898C2570.21 116.19 2565.29 123.299 2562.19 130.227C2559.27 136.971 2557.82 146.633 2557.82 159.211C2557.82 171.607 2558 180.995 2558.36 187.375C2559.64 216.177 2570.3 243.794 2590.35 270.227Z" fill="white"/>
</svg>
