<svg width="607" height="522" viewBox="0 0 607 522" fill="none" xmlns="http://www.w3.org/2000/svg">
<path d="M284.609 124.414C323.62 155.586 353.789 189.036 375.117 224.766C333.555 309.531 269.753 371.784 183.711 411.523C61.5755 362.305 0.507812 287.839 0.507812 188.125C0.507812 180.833 0.872396 173.451 1.60156 165.977C58.4766 83.5807 121.549 28.3464 190.82 0.273438C228.737 26.7057 280.599 48.3984 346.406 65.3516L284.609 124.414ZM185.352 78.4766C183.711 96.888 182.891 113.203 182.891 127.422C182.891 141.641 183.073 153.581 183.438 163.242C193.464 153.945 203.763 144.648 214.336 135.352C224.909 126.055 235.208 116.576 245.234 106.914C229.557 94.7005 209.596 85.2214 185.352 78.4766ZM183.984 176.641C184.896 198.698 186.628 220.664 189.18 242.539C170.221 246.003 147.891 258.49 122.188 280C137.135 293.672 154.18 306.159 173.32 317.461C192.643 328.763 210.69 334.414 227.461 334.414C232.201 334.414 236.94 334.049 241.68 333.32C271.758 328.398 288.62 315 292.266 293.125C293.177 287.292 293.633 281.641 293.633 276.172C293.633 260.859 290.078 247.279 282.969 235.43C275.859 223.398 264.193 211.732 247.969 200.43C231.745 188.945 210.417 181.016 183.984 176.641ZM101.953 260.039C106.693 249.648 109.427 237.708 110.156 224.219L112.617 129.062C112.799 120.859 110.065 110.286 104.414 97.3438C101.497 99.8958 98.8542 102.904 96.4844 106.367C79.8958 128.607 71.6016 153.581 71.6016 181.289C71.6016 211.367 81.7188 237.617 101.953 260.039ZM487.413 444.609C492.881 444.609 495.616 439.961 495.616 430.664C495.616 421.367 491.696 406.602 483.858 386.367C476.019 365.951 463.988 339.974 447.764 308.438C431.54 276.901 413.676 243.997 394.17 209.727C374.847 175.456 357.53 144.284 342.217 116.211C397.452 81.3932 440.472 42.7474 471.28 0.273438C512.295 15.0391 557.23 29.8958 606.084 44.8438C587.126 69.2708 567.985 93.5156 548.663 117.578C542.829 108.646 528.337 99.4401 505.186 89.9609C482.217 80.4818 466.54 75.7422 458.155 75.7422C449.769 75.7422 444.483 77.0182 442.295 79.5703C440.108 82.1224 439.014 85.4036 439.014 89.4141C439.014 101.81 446.397 125.781 461.163 161.328C470.459 161.875 485.407 162.148 506.006 162.148C526.605 162.148 556.228 159.779 594.873 155.039C590.863 176.914 587.217 198.607 583.936 220.117L485.225 214.922C511.84 271.432 540.186 321.38 570.264 364.766C539.092 407.604 501.54 459.831 457.608 521.445C413.129 499.57 373.663 462.93 339.209 411.523C347.595 390.56 358.623 362.76 372.295 328.125C390.889 356.562 412.673 383.086 437.647 407.695C462.621 432.305 479.209 444.609 487.413 444.609Z" fill="white"/>
</svg>
